<svg width="50" height="50" viewBox="0 0 50 50" fill="none" xmlns="http://www.w3.org/2000/svg">
<g id="support_agent_FILL0_wght200_GRAD0_opsz24 1">
<path id="Vector" d="M24.5192 41.6668V39.5835H38.3013C38.6485 39.5835 38.949 39.4767 39.2027 39.263C39.4565 39.0493 39.5833 38.7688 39.5833 38.4216V24.0707C39.5833 20.1684 38.1484 16.9092 35.2784 14.293C32.4085 11.6768 28.9824 10.3688 25 10.3688C21.0176 10.3688 17.5915 11.6768 14.7216 14.293C11.8516 16.9092 10.4167 20.1684 10.4167 24.0707V35.8976H9.375C8.52295 35.8976 7.78911 35.6098 7.17349 35.0342C6.55783 34.4586 6.25 33.7448 6.25 32.8928V28.9665C6.25 28.3442 6.45233 27.792 6.85698 27.3099C7.2616 26.8277 7.75372 26.4358 8.33333 26.134L8.36937 23.5739C8.43347 21.3997 8.92559 19.3858 9.84573 17.5322C10.7659 15.6786 11.9772 14.0653 13.4796 12.6925C14.982 11.3196 16.7274 10.2499 18.7159 9.48334C20.7044 8.71678 22.7991 8.3335 25 8.3335C27.2009 8.3335 29.2936 8.71678 31.2781 9.48334C33.2626 10.2499 35.008 11.3176 36.5144 12.6865C38.0209 14.0553 39.2321 15.6666 40.1482 17.5202C41.0644 19.3738 41.5585 21.3877 41.6306 23.5619L41.6667 26.0698C42.2195 26.3289 42.705 26.6775 43.123 27.1155C43.541 27.5536 43.75 28.0798 43.75 28.6941V33.2053C43.75 33.8196 43.541 34.3458 43.123 34.7838C42.705 35.2219 42.2195 35.5704 41.6667 35.8295V38.4216C41.6667 39.3271 41.3388 40.0943 40.6831 40.7233C40.0274 41.3523 39.2335 41.6668 38.3013 41.6668H24.5192ZM19.5513 28.2053C19.1213 28.2053 18.7467 28.0591 18.4275 27.7666C18.1083 27.4741 17.9487 27.1129 17.9487 26.6829C17.9487 26.2528 18.1083 25.8849 18.4275 25.5791C18.7467 25.2733 19.1213 25.1204 19.5513 25.1204C19.9813 25.1204 20.3559 25.2733 20.6751 25.5791C20.9943 25.8849 21.1539 26.2528 21.1539 26.6829C21.1539 27.1129 20.9943 27.4741 20.6751 27.7666C20.3559 28.0591 19.9813 28.2053 19.5513 28.2053ZM30.4487 28.2053C30.0187 28.2053 29.6441 28.0591 29.3249 27.7666C29.0057 27.4741 28.8461 27.1129 28.8461 26.6829C28.8461 26.2528 29.0057 25.8849 29.3249 25.5791C29.6441 25.2733 30.0187 25.1204 30.4487 25.1204C30.8787 25.1204 31.2533 25.2733 31.5725 25.5791C31.8917 25.8849 32.0513 26.2528 32.0513 26.6829C32.0513 27.1129 31.8917 27.4741 31.5725 27.7666C31.2533 28.0591 30.8787 28.2053 30.4487 28.2053ZM13.9944 24.896C13.8048 21.7763 14.809 19.1174 17.0072 16.9192C19.2054 14.721 21.9044 13.6219 25.1042 13.6219C27.7938 13.6219 30.177 14.4292 32.2536 16.0438C34.3303 17.6584 35.5983 19.7798 36.0577 22.408C33.2986 22.3733 30.7378 21.6695 28.3754 20.2966C26.013 18.9238 24.2001 17.0141 22.9367 14.5675C22.4346 16.9713 21.3895 19.078 19.8017 20.8876C18.2138 22.6971 16.278 24.0333 13.9944 24.896Z" fill="#EA222D"/>
</g>
</svg>
