<svg width="35" height="35" viewBox="0 0 35 35" fill="none" xmlns="http://www.w3.org/2000/svg">
<g id="phone_iphone_FILL1_wght400_GRAD0_opsz24 1">
<path id="Vector" d="M10.2084 33.5418C9.40633 33.5418 8.7197 33.2562 8.14852 32.6851C7.57734 32.1139 7.29175 31.4272 7.29175 30.6252V4.37516C7.29175 3.57308 7.57734 2.88645 8.14852 2.31527C8.7197 1.74409 9.40633 1.4585 10.2084 1.4585H24.7917C25.5938 1.4585 26.2805 1.74409 26.8516 2.31527C27.4228 2.88645 27.7084 3.57308 27.7084 4.37516V30.6252C27.7084 31.4272 27.4228 32.1139 26.8516 32.6851C26.2805 33.2562 25.5938 33.5418 24.7917 33.5418H10.2084ZM17.5001 29.896C17.9133 29.896 18.2596 29.7562 18.5391 29.4767C18.8187 29.1972 18.9584 28.8509 18.9584 28.4377C18.9584 28.0245 18.8187 27.6781 18.5391 27.3986C18.2596 27.1191 17.9133 26.9793 17.5001 26.9793C17.0869 26.9793 16.7405 27.1191 16.461 27.3986C16.1815 27.6781 16.0417 28.0245 16.0417 28.4377C16.0417 28.8509 16.1815 29.1972 16.461 29.4767C16.7405 29.7562 17.0869 29.896 17.5001 29.896ZM10.2084 23.3335H24.7917V8.75016H10.2084V23.3335Z" fill="white"/>
</g>
</svg>
