<svg width="48" height="48" viewBox="0 0 48 48" fill="none" xmlns="http://www.w3.org/2000/svg">
<g id="airplane_ticket_FILL0_wght200_GRAD0_opsz24 1">
<path id="Vector" d="M17.8539 30.8385L35.2693 26.2154C35.718 26.1077 36.0737 25.8635 36.3366 25.4827C36.5994 25.1019 36.6769 24.7 36.5693 24.2769C36.4616 23.8538 36.2083 23.5558 35.8096 23.3827C35.4109 23.2096 35 23.1769 34.5769 23.2846L29.5231 24.6615L21.5231 17.1616L19.4154 17.6307L24.2154 26.0308L18.7231 27.3846L16.2231 25.4846L15.0154 25.8307L17.8539 30.8385ZM38.7693 38H9.23075C8.33588 38 7.5737 37.6853 6.9442 37.0558C6.31473 36.4263 6 35.6641 6 34.7693V29.6154C7.1769 29.1795 8.1378 28.4545 8.8827 27.4404C9.62757 26.4263 10 25.2795 10 24C10 22.7205 9.62757 21.5737 8.8827 20.5596C8.1378 19.5455 7.1769 18.8205 6 18.3847V13.2307C6 12.3359 6.31473 11.5737 6.9442 10.9442C7.5737 10.3147 8.33588 10 9.23075 10H38.7693C39.6641 10 40.4263 10.3147 41.0558 10.9442C41.6853 11.5737 42 12.3359 42 13.2307V34.7693C42 35.6641 41.6853 36.4263 41.0558 37.0558C40.4263 37.6853 39.6641 38 38.7693 38ZM38.7693 36C39.1282 36 39.4231 35.8846 39.6539 35.6539C39.8846 35.4231 40 35.1282 40 34.7693V13.2307C40 12.8718 39.8846 12.5769 39.6539 12.3461C39.4231 12.1154 39.1282 12 38.7693 12H9.23075C8.87178 12 8.57692 12.1154 8.34615 12.3461C8.11538 12.5769 8 12.8718 8 13.2307V17.1C9.23333 17.8333 10.2083 18.8083 10.925 20.025C11.6417 21.2417 12 22.5667 12 24C12 25.4333 11.6417 26.7583 10.925 27.975C10.2083 29.1917 9.23333 30.1667 8 30.9V34.7693C8 35.1282 8.11538 35.4231 8.34615 35.6539C8.57692 35.8846 8.87178 36 9.23075 36H38.7693Z" fill="white"/>
</g>
</svg>
