<svg width="50" height="50" viewBox="0 0 50 50" fill="none" xmlns="http://www.w3.org/2000/svg">
<g id="memory_FILL0_wght200_GRAD0_opsz24 1">
<path id="Vector" d="M20.8334 29.1667V20.8334H29.1667V29.1667H20.8334ZM22.9167 27.0834H27.0834V22.9167H22.9167V27.0834ZM19.7917 40.7052V37.5001H15.8654C14.9066 37.5001 14.106 37.1789 13.4636 36.5365C12.8213 35.8942 12.5001 35.0936 12.5001 34.1347V30.2084H9.29492V28.1251H12.5001V21.8751H9.29492V19.7917H12.5001V15.8654C12.5001 14.9066 12.8213 14.106 13.4636 13.4636C14.106 12.8213 14.9066 12.5001 15.8654 12.5001H19.7917V9.29492H21.8751V12.5001H28.1251V9.29492H30.2084V12.5001H34.1347C35.0936 12.5001 35.8942 12.8213 36.5365 13.4636C37.1789 14.106 37.5001 14.9066 37.5001 15.8654V19.7917H40.7052V21.8751H37.5001V28.1251H40.7052V30.2084H37.5001V34.1347C37.5001 35.0936 37.1789 35.8942 36.5365 36.5365C35.8942 37.1789 35.0936 37.5001 34.1347 37.5001H30.2084V40.7052H28.1251V37.5001H21.8751V40.7052H19.7917ZM34.1347 35.4167C34.4552 35.4167 34.749 35.2832 35.0161 35.0161C35.2832 34.749 35.4167 34.4552 35.4167 34.1347V15.8654C35.4167 15.545 35.2832 15.2512 35.0161 14.984C34.749 14.717 34.4552 14.5834 34.1347 14.5834H15.8654C15.545 14.5834 15.2512 14.717 14.984 14.984C14.717 15.2512 14.5834 15.545 14.5834 15.8654V34.1347C14.5834 34.4552 14.717 34.749 14.984 35.0161C15.2512 35.2832 15.545 35.4167 15.8654 35.4167H34.1347Z" fill="#EA222D"/>
</g>
</svg>
