<svg width="49" height="49" viewBox="0 0 49 49" fill="none" xmlns="http://www.w3.org/2000/svg">
<g id="luggage_FILL0_wght200_GRAD0_opsz24 1">
<path id="Vector" d="M15.5481 40.8333C14.6411 40.8333 13.8647 40.5104 13.2188 39.8645C12.5729 39.2187 12.25 38.4423 12.25 37.5353V16.1763C12.25 15.3151 12.5451 14.5894 13.1354 13.9991C13.7256 13.4089 14.4513 13.1138 15.3125 13.1138H19.3958V8.00961C19.3958 7.48609 19.5791 7.04111 19.9455 6.67467C20.3119 6.30822 20.7569 6.125 21.2804 6.125H27.7196C28.2431 6.125 28.6881 6.30822 29.0545 6.67467C29.4209 7.04111 29.6042 7.48609 29.6042 8.00961V13.1138H33.4519C34.3589 13.1138 35.1353 13.4367 35.7812 14.0826C36.4271 14.7285 36.75 15.5049 36.75 16.4118V37.5353C36.75 38.4423 36.4271 39.2187 35.7812 39.8645C35.1353 40.5104 34.3589 40.8333 33.4519 40.8333V41.3045C33.4519 41.7259 33.2955 42.093 32.9827 42.4058C32.6699 42.7186 32.3028 42.875 31.8814 42.875C31.46 42.875 31.0929 42.7186 30.7801 42.4058C30.4673 42.093 30.3109 41.7259 30.3109 41.3045V40.8333H18.6891V41.3045C18.6891 41.7259 18.5327 42.093 18.2199 42.4058C17.9071 42.7186 17.54 42.875 17.1186 42.875C16.6972 42.875 16.3301 42.7186 16.0173 42.4058C15.7045 42.093 15.5481 41.7259 15.5481 41.3045V40.8333ZM15.5481 38.7917H33.4519C33.8184 38.7917 34.1194 38.6739 34.355 38.4383C34.5905 38.2027 34.7083 37.9017 34.7083 37.5353V16.4118C34.7083 16.0454 34.5905 15.7444 34.355 15.5088C34.1194 15.2732 33.8184 15.1554 33.4519 15.1554H15.5481C15.1816 15.1554 14.8806 15.2732 14.645 15.5088C14.4095 15.7444 14.2917 16.0454 14.2917 16.4118V37.5353C14.2917 37.9017 14.4095 38.2027 14.645 38.4383C14.8806 38.6739 15.1816 38.7917 15.5481 38.7917ZM17.0401 35.1795H18.8462V18.7676H17.0401V35.1795ZM23.597 35.1795H25.403V18.7676H23.597V35.1795ZM30.1538 35.1795H31.9599V18.7676H30.1538V35.1795ZM21.2019 13.1138H27.7981V7.93111H21.2019V13.1138Z" fill="#EA222D"/>
</g>
</svg>
