<svg width="47" height="47" viewBox="0 0 47 47" fill="none" xmlns="http://www.w3.org/2000/svg">
<g id="location_city_FILL0_wght200_GRAD0_opsz24 1">
<path id="Vector" d="M9.86694 39.468V14.0096H18.6041V7.60739L23.5 2.9375L28.3958 7.60739V21.843H37.133V39.468H9.86694ZM11.8253 37.5096H17.7003V31.6346H11.8253V37.5096ZM11.8253 29.6763H17.7003V23.8013H11.8253V29.6763ZM11.8253 21.843H17.7003V15.968H11.8253V21.843ZM20.5625 37.5096H26.4375V31.6346H20.5625V37.5096ZM20.5625 29.6763H26.4375V23.8013H20.5625V29.6763ZM20.5625 21.843H26.4375V15.968H20.5625V21.843ZM20.5625 14.0096H26.4375V8.13462H20.5625V14.0096ZM29.2997 37.5096H35.1747V31.6346H29.2997V37.5096ZM29.2997 29.6763H35.1747V23.8013H29.2997V29.6763Z" fill="#EA222D"/>
</g>
</svg>
