<svg width="35" height="35" viewBox="0 0 35 35" fill="none" xmlns="http://www.w3.org/2000/svg">
<g id="mail_FILL1_wght400_GRAD0_opsz24 1">
<path id="Vector" d="M5.83341 29.1668C5.03133 29.1668 4.3447 28.8812 3.77352 28.3101C3.20234 27.7389 2.91675 27.0522 2.91675 26.2502V8.75016C2.91675 7.94808 3.20234 7.26145 3.77352 6.69027C4.3447 6.11909 5.03133 5.8335 5.83341 5.8335H29.1667C29.9688 5.8335 30.6555 6.11909 31.2266 6.69027C31.7978 7.26145 32.0834 7.94808 32.0834 8.75016V26.2502C32.0834 27.0522 31.7978 27.7389 31.2266 28.3101C30.6555 28.8812 29.9688 29.1668 29.1667 29.1668H5.83341ZM17.5001 18.9585L29.1667 11.6668V8.75016L17.5001 16.0418L5.83341 8.75016V11.6668L17.5001 18.9585Z" fill="white"/>
</g>
</svg>
