<svg width="44" height="44" viewBox="0 0 44 44" fill="none" xmlns="http://www.w3.org/2000/svg">
<g id="passport-svgrepo-com (1) 1" clip-path="url(#clip0_292_10)">
<g id="Group">
<g id="Group_2">
<g id="Group_3">
<path id="Vector" d="M34.825 7.49782H29.3004V0.808057C29.3004 0.627914 29.248 0.448659 29.1368 0.306991C28.9136 0.0224714 28.5436 -0.0698692 28.2257 0.0534489L8.88945 7.55119L8.88442 7.55267C8.58924 7.63692 8.38562 7.90684 8.38562 8.21395V43.2107C8.38562 43.6466 8.739 44 9.17486 44H34.825C35.2609 44 35.6143 43.6466 35.6143 43.2107V8.28705C35.6143 7.8512 35.2609 7.49782 34.825 7.49782ZM27.7219 1.94179V7.49772H13.3933L27.7219 1.94179ZM34.0358 42.4215H9.96409V9.07629H28.5111H34.0358V42.4215Z" fill="white"/>
<path id="Vector_2" d="M21.9999 18.6458C19.1755 18.6458 16.5153 19.7389 14.5099 21.7235C12.4691 23.7395 11.3452 26.4304 11.3452 29.3004C11.3452 35.1754 16.1249 39.9551 21.9999 39.9551C27.875 39.9551 32.6546 35.1754 32.6546 29.3004C32.6546 26.4304 31.5306 23.7396 29.4904 21.724C27.4844 19.7389 24.8242 18.6458 21.9999 18.6458ZM15.6196 22.846C16.3522 22.1211 17.1879 21.5368 18.0926 21.1047C16.8798 22.8894 16.0842 25.5101 15.9649 28.5112H12.9579C13.1412 26.3655 14.0696 24.3774 15.6196 22.846ZM12.9584 30.0897H15.9649C16.0841 33.087 16.8779 35.7049 18.0881 37.4894C15.2614 36.1336 13.2412 33.3564 12.9584 30.0897ZM21.2107 38.2282C19.2724 37.494 17.7261 34.1221 17.5455 30.0897H21.2107V38.2282ZM21.2107 28.5112H17.5455C17.7262 24.4788 19.2725 21.1069 21.2107 20.3727V28.5112ZM22.7891 20.3727C24.7274 21.1069 26.2736 24.4788 26.4542 28.5112H22.7891V20.3727ZM22.7891 38.2281V30.0896H26.4542C26.2736 34.122 24.7274 37.4939 22.7891 38.2281ZM25.9117 37.4894C27.1219 35.7049 27.9157 33.087 28.0349 30.0897H31.0415C30.7586 33.3564 28.7385 36.1336 25.9117 37.4894ZM28.0348 28.5112C27.9155 25.5102 27.1199 22.8896 25.9072 21.1048C26.812 21.537 27.6478 22.1212 28.3807 22.8465C29.9304 24.3774 30.8587 26.3655 31.0419 28.5112H28.0348Z" fill="white"/>
<path id="Vector_3" d="M15.9327 11.9373C15.4967 11.9373 15.1434 12.2906 15.1434 12.7265C15.1434 13.1623 15.4967 13.5157 15.9327 13.5157H28.0672C28.503 13.5157 28.8564 13.1623 28.8564 12.7265C28.8564 12.2905 28.503 11.9373 28.0672 11.9373H15.9327Z" fill="white"/>
<path id="Vector_4" d="M22.8385 15.7848C22.8385 16.2207 23.1919 16.5741 23.6277 16.5741H30.6322C31.0681 16.5741 31.4214 16.2207 31.4214 15.7848C31.4214 15.3489 31.0681 14.9956 30.6322 14.9956H23.6277C23.1919 14.9956 22.8385 15.3489 22.8385 15.7848Z" fill="white"/>
<path id="Vector_5" d="M13.3677 16.5741H20.4708C20.9067 16.5741 21.2601 16.2207 21.2601 15.7848C21.2601 15.3489 20.9067 14.9956 20.4708 14.9956H13.3677C12.9318 14.9956 12.5785 15.3489 12.5785 15.7848C12.5785 16.2207 12.9319 16.5741 13.3677 16.5741Z" fill="white"/>
</g>
</g>
</g>
</g>
<defs>
<clipPath id="clip0_292_10">
<rect width="44" height="44" fill="white"/>
</clipPath>
</defs>
</svg>
