<svg width="56" height="56" viewBox="0 0 56 56" fill="none" xmlns="http://www.w3.org/2000/svg">
<g id="passport-svgrepo-com 2" clip-path="url(#clip0_66_43)">
<path id="Vector" d="M12.7743 11.2591L15.1681 31.28L15.1462 11.0424L15.1448 10.9761L12.7743 11.2591ZM21.0795 10.2672L35.8675 10.2451L35.6629 8.52546L21.0795 10.2672ZM16.6831 11.8085L16.7211 45.767L39.7654 45.7411L39.7226 11.775L16.6831 11.8085ZM18.6537 15.7296L37.7693 15.7082L37.7676 17.237L18.6532 17.2624L18.6537 15.7296ZM22.753 22.553L33.6772 22.5354L33.6756 24.0642L22.7514 24.0817L22.753 22.553ZM25.7712 26.9926C26.55 26.7671 27.3679 26.6458 28.2214 26.6475C33.1594 26.6394 37.1914 30.6522 37.1913 35.5927C37.2018 40.5389 33.1865 44.5626 28.2461 44.5625C23.2999 44.573 19.2761 40.5578 19.268 35.6197C19.2641 31.5246 22.0198 28.061 25.7712 26.9926ZM26.1879 28.4625C24.2343 29.0193 22.6118 30.351 21.6719 32.107L24.8162 32.1029C25.1445 30.7816 25.684 29.5147 26.4174 28.396L26.1879 28.4625ZM28.2235 28.5573C27.4028 29.5591 26.7975 30.7828 26.4153 32.1019L30.0403 32.1008C29.6499 30.7833 29.0453 29.5544 28.2235 28.5573ZM30.0237 28.3915C30.7651 29.5096 31.3006 30.7763 31.6394 32.0999L34.7837 32.0958C33.8007 30.2656 32.083 28.9059 30.0237 28.3915ZM21.0677 33.6414C20.894 34.2693 20.8026 34.9355 20.805 35.619C20.8051 36.2943 20.8977 36.9517 21.0675 37.5689L24.5225 37.5637C24.4323 36.9145 24.3936 36.2593 24.3901 35.6028C24.3866 34.9463 24.4347 34.2837 24.5227 33.6362L21.0677 33.6414ZM26.076 33.6307C25.9717 34.283 25.9236 34.9455 25.9271 35.602C25.9306 36.2586 25.9798 36.9196 26.0865 37.564L30.3867 37.5629C30.4829 36.9131 30.5416 36.2563 30.5357 35.5916C30.5322 34.9351 30.483 34.274 30.3763 33.6296L26.076 33.6307ZM31.9379 33.6217C32.0281 34.2709 32.0692 34.9343 32.0727 35.5908C32.0762 36.2474 32.0281 36.9099 31.9425 37.5656L35.3975 37.5604C35.5629 36.9349 35.6567 36.2769 35.6543 35.5934C35.6519 34.9099 35.5593 34.2525 35.3929 33.6165L31.9379 33.6217ZM21.6708 39.1002C22.6481 40.9409 24.3787 42.3147 26.4626 42.822C25.7107 41.698 25.1669 40.4338 24.8233 39.0938L21.6708 39.1002ZM26.4225 39.0928C26.8152 40.4186 27.4175 41.6392 28.2417 42.6445C29.0599 41.6346 29.6653 40.4108 30.0557 39.0893L26.4225 39.0928ZM31.6466 39.0907C31.3125 40.4226 30.773 41.6895 30.0313 42.8106C32.1046 42.2991 33.8208 40.9225 34.7991 39.0843L31.6466 39.0907Z" fill="#EA222D"/>
</g>
<defs>
<clipPath id="clip0_66_43">
<rect width="43.6992" height="43.6992" fill="white" transform="translate(0.935547 13.0894) rotate(-16.1482)"/>
</clipPath>
</defs>
</svg>
