<svg width="40" height="40" viewBox="0 0 40 40" fill="none" xmlns="http://www.w3.org/2000/svg">
<g id="call_FILL1_wght200_GRAD0_opsz24 1">
<path id="Vector" d="M31.5514 33.3333C28.7415 33.3333 25.8612 32.6298 22.9103 31.2227C19.9595 29.8157 17.2127 27.8408 14.67 25.2981C12.1486 22.7553 10.1844 20.0139 8.77733 17.0737C7.37028 14.1335 6.66675 11.2585 6.66675 8.4487C6.66675 7.9487 6.83341 7.52668 7.16675 7.18266C7.50008 6.83866 7.91675 6.66666 8.41675 6.66666H12.5385C12.9915 6.66666 13.3868 6.80928 13.7245 7.09453C14.0621 7.37978 14.2907 7.7457 14.4103 8.19228L15.2372 12.1667C15.3142 12.6325 15.3003 13.0395 15.1956 13.3878C15.0909 13.7361 14.9061 14.0214 14.6411 14.2436L10.984 17.6538C11.6678 18.8953 12.4237 20.0486 13.2517 21.1138C14.0797 22.1789 14.9627 23.188 15.9007 24.141C16.8687 25.109 17.9103 26.0091 19.0257 26.8413C20.1411 27.6736 21.3655 28.4594 22.6988 29.1987L26.2629 25.5705C26.5343 25.2778 26.8393 25.0849 27.178 24.992C27.5166 24.899 27.8911 24.8803 28.3014 24.9359L31.8078 25.6538C32.2608 25.7649 32.6283 25.993 32.9103 26.3381C33.1924 26.6832 33.3334 27.079 33.3334 27.5256V31.5833C33.3334 32.0833 33.1614 32.5 32.8174 32.8333C32.4734 33.1667 32.0514 33.3333 31.5514 33.3333Z" fill="white"/>
</g>
</svg>
