<svg width="50" height="50" viewBox="0 0 50 50" fill="none" xmlns="http://www.w3.org/2000/svg">
<g id="handshake_FILL0_wght200_GRAD0_opsz24 (1) 1">
<path id="Vector" d="M24.3789 41.5465C24.6514 41.5465 24.9305 41.485 25.2163 41.3622C25.5021 41.2393 25.7331 41.0898 25.9094 40.9135L42.1514 24.6715C42.6749 24.148 43.0789 23.6124 43.3633 23.0649C43.6478 22.5174 43.79 21.9164 43.79 21.262C43.79 20.5996 43.6478 19.9566 43.3633 19.3329C43.0789 18.7093 42.6749 18.1397 42.1514 17.6242L34.3389 9.81173C33.8234 9.28822 33.2939 8.90426 32.7504 8.65985C32.2068 8.41548 31.6038 8.29329 30.9414 8.29329C30.2871 8.29329 29.6794 8.41548 29.1185 8.65985C28.5576 8.90426 28.0288 9.28822 27.532 9.81173L25.7171 11.6266L29.5712 15.4928C29.9853 15.8988 30.2938 16.3609 30.4968 16.879C30.6997 17.3972 30.8012 17.9234 30.8012 18.4576C30.8012 19.5419 30.4467 20.4387 29.7375 21.1478C29.0284 21.857 28.1316 22.2116 27.0472 22.2116C26.513 22.2116 25.9915 22.1301 25.4827 21.9671C24.9739 21.8042 24.5165 21.5198 24.1105 21.1138L20.1242 17.1394L11.1297 26.1338C10.9187 26.3448 10.7605 26.5845 10.655 26.853C10.5495 27.1214 10.4967 27.3919 10.4967 27.6643C10.4967 28.1557 10.6543 28.5611 10.9695 28.8802C11.2846 29.1994 11.688 29.359 12.1794 29.359C12.4518 29.359 12.731 29.2975 13.0168 29.1747C13.3026 29.0518 13.5336 28.9022 13.7099 28.726L20.3124 22.1234L21.7868 23.5978L15.1962 30.2003C14.9852 30.4113 14.827 30.6511 14.7215 30.9195C14.616 31.1879 14.5632 31.4584 14.5632 31.7308C14.5632 32.1955 14.7275 32.5921 15.056 32.9207C15.3845 33.2492 15.7812 33.4135 16.2459 33.4135C16.5184 33.4135 16.7975 33.352 17.0833 33.2292C17.3691 33.1063 17.6001 32.9567 17.7764 32.7805L24.8597 25.7091L26.3341 27.1835L19.2627 34.2668C19.0785 34.4431 18.9269 34.6742 18.808 34.96C18.6892 35.2458 18.6297 35.5249 18.6297 35.7973C18.6297 36.262 18.794 36.6587 19.1225 36.9872C19.451 37.3157 19.8477 37.48 20.3124 37.48C20.5849 37.48 20.8553 37.4272 21.1237 37.3217C21.3922 37.2162 21.6319 37.058 21.8429 36.847L28.9262 29.7756L30.4006 31.25L23.3172 38.3333C23.1062 38.5444 22.948 38.7974 22.8425 39.0926C22.737 39.3877 22.6843 39.6581 22.6843 39.9039C22.6843 40.3953 22.8572 40.792 23.2031 41.0938C23.549 41.3956 23.9409 41.5465 24.3789 41.5465ZM24.3669 43.6299C23.2959 43.6299 22.3791 43.2379 21.6165 42.454C20.854 41.6701 20.5194 40.7025 20.6129 39.5513C19.4324 39.5647 18.4494 39.2121 17.6642 38.4936C16.8789 37.7751 16.5063 36.7722 16.5464 35.4848C15.259 35.4981 14.2447 35.1302 13.5035 34.3811C12.7623 33.6319 12.4251 32.6443 12.4919 31.4183C11.3327 31.4316 10.3632 31.1058 9.58327 30.4407C8.80334 29.7757 8.41337 28.8502 8.41337 27.6643C8.41337 27.1301 8.51688 26.5952 8.72389 26.0597C8.93087 25.5242 9.23737 25.0534 9.64337 24.6475L20.1242 14.1787L25.5047 19.5593C25.681 19.7436 25.8987 19.8952 26.1578 20.014C26.4169 20.1329 26.7093 20.1923 27.0352 20.1923C27.4812 20.1923 27.8752 20.0367 28.2171 19.7256C28.5589 19.4144 28.7299 19.0091 28.7299 18.5096C28.7299 18.1838 28.6705 17.8913 28.5516 17.6322C28.4328 17.3731 28.2812 17.1555 28.0969 16.9792L20.9294 9.81173C20.4139 9.28822 19.8777 8.90426 19.3209 8.65985C18.764 8.41548 18.1543 8.29329 17.4919 8.29329C16.8375 8.29329 16.2433 8.41548 15.709 8.65985C15.1749 8.90426 14.646 9.28822 14.1225 9.81173L7.7804 16.1659C7.33433 16.6119 6.97374 17.1434 6.69863 17.7604C6.42353 18.3774 6.27797 19.0144 6.26197 19.6715C6.24592 20.1416 6.28598 20.5936 6.38212 21.0277C6.4783 21.4617 6.63056 21.8697 6.83889 22.2516L5.26035 23.8302C4.91046 23.2719 4.63667 22.6289 4.439 21.9011C4.24136 21.1732 4.15056 20.43 4.1666 19.6715C4.18261 18.726 4.37224 17.8198 4.73551 16.9531C5.09874 16.0864 5.61823 15.3152 6.294 14.6394L12.5961 8.33736C13.3226 7.61885 14.0911 7.08465 14.9018 6.73475C15.7124 6.38489 16.5892 6.20996 17.532 6.20996C18.4748 6.20996 19.3449 6.38489 20.1422 6.73475C20.9394 7.08465 21.6973 7.61885 22.4158 8.33736L24.2307 10.1523L26.0456 8.33736C26.7721 7.61885 27.534 7.08465 28.3312 6.73475C29.1285 6.38489 29.9986 6.20996 30.9414 6.20996C31.8843 6.20996 32.761 6.38489 33.5717 6.73475C34.3823 7.08465 35.1468 7.61885 35.8653 8.33736L43.6258 16.0978C44.3442 16.8162 44.8985 17.6229 45.2884 18.5176C45.6784 19.4124 45.8733 20.3312 45.8733 21.2741C45.8733 22.2169 45.6784 23.0869 45.2884 23.8842C44.8985 24.6815 44.3442 25.4394 43.6258 26.1579L27.3837 42.3878C26.9511 42.8205 26.4803 43.1357 25.9715 43.3333C25.4627 43.531 24.9278 43.6299 24.3669 43.6299Z" fill="#EA222D"/>
</g>
</svg>
