<svg width="46" height="46" viewBox="0 0 46 46" fill="none" xmlns="http://www.w3.org/2000/svg">
<g id="mosque_FILL0_wght200_GRAD0_opsz24 1">
<path id="Vector" d="M2.87504 39.2916V16.17C2.30004 15.8923 1.83685 15.5185 1.48546 15.0484C1.13407 14.5784 0.958374 14.0345 0.958374 13.4166C0.958374 12.8539 1.20655 12.1991 1.7029 11.4521C2.19929 10.705 2.90944 9.89782 3.83337 9.0304C4.7573 9.89782 5.46746 10.705 5.96385 11.4521C6.4602 12.1991 6.70837 12.8539 6.70837 13.4166C6.70837 14.0345 6.53268 14.5784 6.18129 15.0484C5.8299 15.5185 5.36671 15.8923 4.79171 16.17V25.875H10.5417V21.0833C10.5417 20.3338 10.7911 19.6839 11.2899 19.1335C11.7888 18.5831 12.4313 18.282 13.2177 18.2304H14.5446C13.8737 17.6136 13.3583 16.9183 12.9983 16.1442C12.6384 15.3702 12.4584 14.5249 12.4584 13.6083C12.4584 12.4969 12.7252 11.4688 13.2587 10.5241C13.7923 9.57933 14.5084 8.80133 15.4071 8.19004L23 3.05927L30.593 8.19004C31.4917 8.80133 32.2078 9.57933 32.7414 10.5241C33.2749 11.4688 33.5417 12.4969 33.5417 13.6083C33.5417 14.5249 33.3617 15.3702 33.0017 16.1442C32.6418 16.9183 32.1263 17.6136 31.4555 18.2304H32.7824C33.5687 18.282 34.2113 18.5831 34.7102 19.1335C35.209 19.6839 35.4584 20.3338 35.4584 21.0833V25.875H41.2084V16.17C40.6334 15.8923 40.1702 15.5185 39.8188 15.0484C39.4674 14.5784 39.2917 14.0345 39.2917 13.4166C39.2917 12.8539 39.5399 12.1991 40.0362 11.4521C40.5326 10.705 41.2428 9.89782 42.1667 9.0304C43.0906 9.89782 43.8008 10.705 44.2972 11.4521C44.7935 12.1991 45.0417 12.8539 45.0417 13.4166C45.0417 14.0345 44.866 14.5784 44.5146 15.0484C44.1632 15.5185 43.7 15.8923 43.125 16.17V39.2916H25.875V32.5833C25.875 31.7945 25.5931 31.1182 25.0291 30.5542C24.4652 29.9903 23.7888 29.7083 23 29.7083C22.2113 29.7083 21.5349 29.9903 20.971 30.5542C20.407 31.1182 20.125 31.7945 20.125 32.5833V39.2916H2.87504ZM18.975 18.2083H27.025C28.293 18.2083 29.3766 17.7586 30.276 16.8593C31.1754 15.9599 31.625 14.8781 31.625 13.614C31.625 12.8239 31.4444 12.0854 31.0832 11.3986C30.722 10.7118 30.2121 10.1559 29.5536 9.73075L23 5.37402L16.4465 9.73075C15.788 10.1559 15.2781 10.7118 14.9169 11.3986C14.5557 12.0854 14.375 12.8239 14.375 13.614C14.375 14.8781 14.8247 15.9599 15.7241 16.8593C16.6235 17.7586 17.7071 18.2083 18.975 18.2083ZM4.79171 37.375H18.2084V32.5833C18.2084 31.2523 18.6738 30.1209 19.6047 29.1892C20.5355 28.2575 21.6659 27.7916 22.9957 27.7916C24.3255 27.7916 25.4573 28.2575 26.3911 29.1892C27.3248 30.1209 27.7917 31.2523 27.7917 32.5833V37.375H41.2084V27.7916H33.5417V21.0833C33.5417 20.813 33.4496 20.5857 33.2653 20.4014C33.081 20.2171 32.8537 20.125 32.5834 20.125H13.4167C13.1464 20.125 12.9191 20.2171 12.7348 20.4014C12.5505 20.5857 12.4584 20.813 12.4584 21.0833V27.7916H4.79171V37.375Z" fill="#EA222D"/>
</g>
</svg>
