<svg width="50" height="50" viewBox="0 0 50 50" fill="none" xmlns="http://www.w3.org/2000/svg">
<g id="manage_accounts_FILL0_wght200_GRAD0_opsz24 1">
<path id="Vector" d="M20.8333 23.7178C19.1146 23.7178 17.6432 23.1058 16.4193 21.8819C15.1953 20.6579 14.5833 19.1866 14.5833 17.4678C14.5833 15.749 15.1953 14.2777 16.4193 13.0537C17.6432 11.8298 19.1146 11.2178 20.8333 11.2178C22.5521 11.2178 24.0234 11.8298 25.2474 13.0537C26.4714 14.2777 27.0833 15.749 27.0833 17.4678C27.0833 19.1866 26.4714 20.6579 25.2474 21.8819C24.0234 23.1058 22.5521 23.7178 20.8333 23.7178ZM6.25 38.7819V35.3524C6.25 34.3936 6.49172 33.5642 6.97516 32.8644C7.45859 32.1646 8.14102 31.6078 9.02245 31.1938C10.7131 30.3711 12.4559 29.694 14.2508 29.1625C16.0457 28.631 18.2399 28.3652 20.8333 28.3652H21.3221C21.4503 28.3652 21.6052 28.3732 21.7869 28.3893C21.6426 28.7472 21.5285 29.0978 21.4443 29.441C21.3602 29.7842 21.2794 30.1201 21.2019 30.4486H20.8333C18.5016 30.4486 16.4684 30.6876 14.7336 31.1657C12.9988 31.6438 11.4263 32.2622 10.016 33.0207C9.38302 33.3545 8.94431 33.7044 8.6999 34.0704C8.45552 34.4363 8.33333 34.8636 8.33333 35.3524V36.6986H21.4583C21.5598 37.0271 21.684 37.3803 21.8309 37.7583C21.9778 38.1362 22.1394 38.4774 22.3157 38.7819H6.25ZM33.774 39.7836L33.4695 37.3797C32.8926 37.2595 32.3484 37.0572 31.8369 36.7727C31.3254 36.4883 30.8654 36.127 30.4567 35.689L28.1971 36.5864L27.3157 35.088L29.2308 33.6457C29.0011 33.0527 28.8862 32.4411 28.8862 31.8107C28.8862 31.1804 29.0011 30.5688 29.2308 29.9758L27.3558 28.4534L28.2372 26.955L30.4567 27.8925C30.8387 27.4544 31.2921 27.0999 31.8169 26.8288C32.3418 26.5577 32.8926 26.362 33.4695 26.2418L33.774 23.838H35.5369L35.8013 26.2418C36.3782 26.362 36.9291 26.5597 37.454 26.8348C37.9788 27.1099 38.4322 27.4705 38.8141 27.9165L41.0336 26.955L41.9151 28.4774L40.0401 29.9999C40.2698 30.5852 40.3846 31.195 40.3846 31.8291C40.3846 32.4633 40.2698 33.0688 40.0401 33.6457L41.9552 35.088L41.0738 36.5864L38.8141 35.689C38.4055 36.127 37.9454 36.4883 37.4339 36.7727C36.9224 37.0572 36.3782 37.2595 35.8013 37.3797L35.5369 39.7836H33.774ZM34.619 35.5768C35.6556 35.5768 36.5418 35.2077 37.2777 34.4695C38.0135 33.7313 38.3814 32.8438 38.3814 31.8072C38.3814 30.7706 38.0123 29.8843 37.2741 29.1485C36.5359 28.4127 35.6485 28.0448 34.6118 28.0448C33.5752 28.0448 32.689 28.4139 31.9531 29.152C31.2173 29.8902 30.8494 30.7777 30.8494 31.8143C30.8494 32.851 31.2185 33.7372 31.9567 34.473C32.6949 35.2089 33.5823 35.5768 34.619 35.5768ZM20.8333 21.6345C21.9792 21.6345 22.9601 21.2265 23.776 20.4105C24.592 19.5946 25 18.6137 25 17.4678C25 16.322 24.592 15.3411 23.776 14.5251C22.9601 13.7091 21.9792 13.3012 20.8333 13.3012C19.6875 13.3012 18.7066 13.7091 17.8906 14.5251C17.0747 15.3411 16.6667 16.322 16.6667 17.4678C16.6667 18.6137 17.0747 19.5946 17.8906 20.4105C18.7066 21.2265 19.6875 21.6345 20.8333 21.6345Z" fill="#EA222D"/>
</g>
</svg>
